<svg
                width="24"
                height="25"
                viewBox="0 0 24 25"
                fill="none"
                xmlns="http://www.w3.org/2000/svg"
              >
                <g clip-path="url(#clip0_7_9964)">
                  <path
                    d="M23.7663 13.0265C23.7663 12.2108 23.7001 11.3906 23.559 10.5881H12.2402V15.2091H18.722C18.453 16.6995 17.5888 18.0179 16.3233 18.8556V21.854H20.1903C22.4611 19.764 23.7663 16.6774 23.7663 13.0265Z"
                    fill="#4285F4"
                  ></path>
                  <path
                    d="M12.2401 24.7508C15.4766 24.7508 18.2059 23.6882 20.1945 21.8539L16.3276 18.8555C15.2517 19.5875 13.8627 20.002 12.2445 20.002C9.11388 20.002 6.45946 17.8899 5.50705 15.0503H1.5166V18.1412C3.55371 22.1934 7.7029 24.7508 12.2401 24.7508Z"
                    fill="#34A853"
                  ></path>
                  <path
                    d="M5.50277 15.0502C5.00011 13.5599 5.00011 11.946 5.50277 10.4557V7.36475H1.51674C-0.185266 10.7555 -0.185266 14.7504 1.51674 18.1412L5.50277 15.0502Z"
                    fill="#FBBC04"
                  ></path>
                  <path
                    d="M12.2401 5.49966C13.9509 5.4732 15.6044 6.11697 16.8434 7.29867L20.2695 3.87262C18.1001 1.8355 15.2208 0.715534 12.2401 0.750809C7.7029 0.750809 3.55371 3.30822 1.5166 7.36481L5.50264 10.4558C6.45064 7.61173 9.10947 5.49966 12.2401 5.49966Z"
                    fill="#EA4335"
                  ></path>
                </g>
              </svg>